<svg width="512" height="512" viewBox="0 0 512 512" fill="none" xmlns="http://www.w3.org/2000/svg">
<g clip-path="url(#clip0_19_20)">
<path d="M220.57 338.64C207.13 409.12 190.71 476.7 142.07 512C127.06 405.46 164.12 325.45 181.32 240.51C151.98 191.11 184.85 91.71 246.74 116.21C322.89 146.33 180.8 299.84 276.19 319.01C375.79 339.02 416.44 146.2 354.69 83.5C265.45 -7.05001 94.93 81.43 115.9 211.07C121 242.76 153.75 252.38 128.99 296.11C71.8701 283.45 54.83 238.41 57.02 178.36C60.55 80.06 145.34 11.24 230.39 1.71999C337.94 -10.32 438.88 41.2 452.82 142.38C468.52 256.57 404.27 380.24 289.27 371.35C258.09 368.93 245.01 353.48 220.57 338.64V338.64Z" fill="white"/>
</g>
<defs>
<clipPath id="clip0_19_20">
<rect width="512" height="512" fill="white"/>
</clipPath>
</defs>
</svg>
