<svg width="512" height="512" viewBox="0 0 512 512" fill="none" xmlns="http://www.w3.org/2000/svg">
<path d="M189.645 394.668C194.465 394.668 199.223 392.492 202.383 388.395L271.715 297.727C273.848 294.934 275 291.52 275 288V165.332C275 156.5 267.832 149.332 259 149.332C250.168 149.332 243 156.5 243 165.332V282.582L176.953 368.938C171.574 375.957 172.941 386.004 179.938 391.359C182.863 393.602 186.273 394.668 189.645 394.668V394.668Z" fill="#3D3D3D"/>
<path d="M259 512C382.52 512 483 411.52 483 288C483 164.48 382.52 64 259 64C135.48 64 35 164.48 35 288C35 411.52 135.48 512 259 512ZM259 96C364.879 96 451 182.145 451 288C451 393.855 364.879 480 259 480C153.121 480 67 393.855 67 288C67 182.145 153.121 96 259 96Z" fill="#3D3D3D"/>
<path d="M184.332 32H333.668C342.5 32 349.668 24.832 349.668 16C349.668 7.16797 342.5 0 333.668 0H184.332C175.5 0 168.332 7.16797 168.332 16C168.332 24.832 175.5 32 184.332 32Z" fill="#3D3D3D"/>
<path d="M259 96C267.832 96 275 88.832 275 80V16C275 7.16797 267.832 0 259 0C250.168 0 243 7.16797 243 16V80C243 88.832 250.168 96 259 96Z" fill="#3D3D3D"/>
<path d="M112.012 157.012C116.109 157.012 120.207 155.457 123.32 152.32C129.57 146.07 129.57 135.938 123.32 129.684L72.9727 79.3399C66.7031 73.0664 56.5664 73.1094 50.3398 79.3399C44.0898 85.5899 44.0898 95.7227 50.3398 101.973L100.684 152.32C103.844 155.457 107.918 157.012 112.012 157.012Z" fill="#3D3D3D"/>
</svg>
