<svg width="512" height="512" viewBox="0 0 512 512" fill="none" xmlns="http://www.w3.org/2000/svg">
<path d="M448.779 235.5C464.04 152.252 399.905 76 316 76C267.515 76 224.127 101.721 200.218 141.534C167.606 130.996 134.074 135.487 106.448 154.505C78.837 173.512 62.347 203.606 61.012 236.521C24.118 253.902 0 290.638 0 331C0 337.913 0.678 344.828 2.014 351.555C11.733 400.485 55.044 436 105 436H406C464.448 436 512 388.897 512 331C512 289.686 486.935 252.393 448.779 235.5ZM406 406H105C64 406 30 372.765 30 331C30 299.75 50.537 271.48 81.104 260.655L91.754 256.883L91.069 245.605C89.458 219.105 101.567 194.286 123.46 179.215C146.611 163.277 175.012 162.176 201.009 173.964L214.521 180.091L220.796 166.647C237.992 129.806 275.362 106 316 106C373.897 106 421 153.103 421 211C421 228.126 417.387 238.495 413.392 252.224C424.577 258.03 426.387 259.106 430.153 260.396C461.164 271.018 482 299.392 482 331C482 372.355 447.906 406 406 406Z" fill="#3D3D3D"/>
</svg>
