<svg width="512" height="512" viewBox="0 0 512 512" fill="none" xmlns="http://www.w3.org/2000/svg">
<g clip-path="url(#clip0_240_2)">
<path d="M486.461 441.914H144.089C129.978 441.914 118.541 430.478 118.541 416.367C118.541 402.256 129.978 390.819 144.089 390.819H486.452C500.563 390.819 512 402.256 512 416.367C512 430.478 500.572 441.914 486.461 441.914Z" fill="#3D3D3D"/>
<path d="M486.461 281.552H144.089C129.978 281.552 118.541 270.115 118.541 256.004C118.541 241.893 129.978 230.457 144.089 230.457H486.452C500.563 230.457 512 241.893 512 256.004C512.009 270.115 500.572 281.552 486.461 281.552Z" fill="#3D3D3D"/>
<path d="M486.461 121.189H144.089C129.978 121.189 118.541 109.753 118.541 95.6417C118.541 81.5309 129.978 70.0941 144.089 70.0941H486.452C500.563 70.0941 512 81.5309 512 95.6417C512 109.753 500.572 121.189 486.461 121.189Z" fill="#3D3D3D"/>
<path d="M34.3105 131.928C53.2596 131.928 68.6209 116.567 68.6209 97.6175C68.6209 78.6683 53.2596 63.307 34.3105 63.307C15.3613 63.307 0 78.6683 0 97.6175C0 116.567 15.3613 131.928 34.3105 131.928Z" fill="#3D3D3D"/>
<path d="M34.3105 290.315C53.2596 290.315 68.6209 274.953 68.6209 256.004C68.6209 237.055 53.2596 221.694 34.3105 221.694C15.3613 221.694 0 237.055 0 256.004C0 274.953 15.3613 290.315 34.3105 290.315Z" fill="#3D3D3D"/>
<path d="M34.3105 448.701C53.2596 448.701 68.6209 433.34 68.6209 414.391C68.6209 395.442 53.2596 380.081 34.3105 380.081C15.3613 380.081 0 395.442 0 414.391C0 433.34 15.3613 448.701 34.3105 448.701Z" fill="#3D3D3D"/>
</g>
<defs>
<clipPath id="clip0_240_2">
<rect width="512" height="512" fill="white"/>
</clipPath>
</defs>
</svg>
