<svg width="512" height="512" viewBox="0 0 512 512" fill="none" xmlns="http://www.w3.org/2000/svg">
<path d="M206.848 282.624C205.312 282.624 171.52 282.624 156.16 282.624C147.968 282.624 145.408 279.552 145.408 271.872C145.408 251.392 145.408 230.4 145.408 209.92C145.408 201.728 148.48 199.168 156.16 199.168H206.848C206.848 197.632 206.848 167.936 206.848 154.112C206.848 133.632 210.432 114.176 220.672 96.256C231.424 77.824 246.784 65.536 266.24 58.368C279.04 53.76 291.84 51.712 305.664 51.712H355.84C363.008 51.712 366.08 54.784 366.08 61.952V120.32C366.08 127.488 363.008 130.56 355.84 130.56C342.016 130.56 328.192 130.56 314.368 131.072C300.544 131.072 293.376 137.728 293.376 152.064C292.864 167.424 293.376 182.272 293.376 198.144H352.768C360.96 198.144 364.032 201.216 364.032 209.408V271.36C364.032 279.552 361.472 282.112 352.768 282.112C334.336 282.112 294.912 282.112 293.376 282.112V449.024C293.376 457.728 290.816 460.8 281.6 460.8C260.096 460.8 239.104 460.8 217.6 460.8C209.92 460.8 206.848 457.728 206.848 450.048C206.848 396.288 206.848 284.16 206.848 282.624V282.624Z" fill="#FDFDFD"/>
</svg>
