<svg width="512" height="512" viewBox="0 0 512 512" fill="none" xmlns="http://www.w3.org/2000/svg">
<g clip-path="url(#clip0_81_29)">
<path d="M370.132 0H141.868C122.851 0 107.286 15.5502 107.286 34.5819V477.403C107.286 496.435 122.851 512 141.868 512H370.132C389.149 512 404.714 496.464 404.714 477.418V34.5819C404.714 15.5502 389.149 0 370.132 0ZM219.487 24.9271H292.513C294.824 24.9271 296.697 26.7995 296.697 29.1255C296.697 31.4368 294.824 33.3093 292.513 33.3093H219.487C217.176 33.3093 215.303 31.4368 215.303 29.1255C215.303 26.7995 217.176 24.9271 219.487 24.9271ZM256 494.709C246.448 494.709 238.709 486.97 238.709 477.403C238.709 467.836 246.448 460.112 256 460.112C265.552 460.112 273.291 467.836 273.291 477.403C273.291 486.97 265.552 494.709 256 494.709ZM380.65 448H131.35V54.8425H380.65V448Z" fill="#3D3D3D"/>
</g>
<defs>
<clipPath id="clip0_81_29">
<rect width="512" height="512" fill="white"/>
</clipPath>
</defs>
</svg>
