<svg width="512" height="512" viewBox="0 0 512 512" fill="none" xmlns="http://www.w3.org/2000/svg">
<path d="M507.147 484.145L374.957 354.067C409.573 316.458 430.843 266.718 430.843 211.985C430.826 94.9017 334.388 1.52588e-05 215.416 1.52588e-05C96.4436 1.52588e-05 0.00512695 94.9017 0.00512695 211.985C0.00512695 329.069 96.4436 423.971 215.416 423.971C266.82 423.971 313.966 406.191 351 376.632L483.703 507.222C490.169 513.592 500.666 513.592 507.132 507.222C513.613 500.853 513.613 490.515 507.147 484.145ZM215.416 391.356C114.752 391.356 33.1491 311.049 33.1491 211.985C33.1491 112.922 114.752 32.6152 215.416 32.6152C316.08 32.6152 397.682 112.922 397.682 211.985C397.682 311.049 316.08 391.356 215.416 391.356Z" fill="#00D9A6"/>
</svg>
