<svg width="512" height="512" viewBox="0 0 512 512" fill="none" xmlns="http://www.w3.org/2000/svg">
<g clip-path="url(#clip0_81_17)">
<path d="M428.8 445.601L368.872 385.673L385.308 369.237L428.655 412.584C467.493 369.672 488.727 314.692 488.727 256.362C488.727 128.074 384.29 23.6364 256.001 23.6364C127.709 23.6364 23.2713 128.074 23.2713 256.362C23.2713 314.692 44.5099 369.672 83.3438 412.435L126.835 368.947L143.271 385.384L83.1989 445.456L74.9105 437.163C26.6165 389.018 0 324.727 0 256.362C0 115.273 114.908 0.365051 256.001 0.365051C397.091 0.365051 511.999 115.273 511.999 256.362C511.999 324.727 485.382 389.018 437.092 437.453L428.8 445.601Z" fill="#3D3D3D"/>
<path d="M259.347 326.18C225.456 326.18 197.817 298.545 197.817 264.655C197.817 241.089 211.636 219.271 232.871 209.091L389.962 134.18L315.055 291.271C304.871 312.365 283.053 326.18 259.347 326.18V326.18ZM340.653 183.344L242.911 230.036C229.675 236.291 221.092 249.962 221.092 264.655C221.092 285.744 238.253 302.909 259.347 302.909C274.036 302.909 287.565 294.327 293.962 281.091L340.653 183.344Z" fill="#3D3D3D"/>
</g>
<defs>
<clipPath id="clip0_81_17">
<rect width="512" height="512" fill="white"/>
</clipPath>
</defs>
</svg>
