<svg width="512" height="512" viewBox="0 0 512 512" fill="none" xmlns="http://www.w3.org/2000/svg">
<path d="M255.875 21.457C250.313 21.545 245.005 23.8019 241.083 27.7464L134.458 134.373C132.335 136.315 130.626 138.667 129.435 141.287C128.244 143.907 127.596 146.742 127.529 149.619C127.462 152.496 127.978 155.357 129.046 158.029C130.113 160.702 131.71 163.131 133.741 165.17C135.772 167.209 138.194 168.816 140.863 169.895C143.531 170.973 146.39 171.502 149.267 171.447C152.145 171.392 154.981 170.755 157.606 169.575C160.231 168.395 162.59 166.695 164.542 164.58L234.625 94.4959L234.796 469.164C234.92 474.74 237.222 480.045 241.209 483.945C245.196 487.845 250.552 490.03 256.129 490.03C261.707 490.03 267.062 487.845 271.05 483.945C275.037 480.045 277.339 474.74 277.463 469.164L277.292 94.0801L347.667 164.58C351.702 168.446 357.091 170.58 362.68 170.522C368.268 170.464 373.612 168.221 377.567 164.272C381.522 160.323 383.773 154.981 383.838 149.393C383.903 143.804 381.778 138.413 377.916 134.373L271.292 27.7464C269.275 25.7182 266.87 24.1172 264.222 23.0367C261.574 21.9563 258.735 21.4184 255.875 21.457V21.457Z" fill="black"/>
</svg>
