<svg width="512" height="512" viewBox="0 0 512 512" fill="none" xmlns="http://www.w3.org/2000/svg">
<path d="M256 0C397.152 0 512 114.848 512 256C512 305.216 498.208 352.48 472.064 393.216L510.848 490.048C513.216 496 511.84 502.784 507.296 507.328C504.256 510.368 500.16 512 496 512C493.984 512 492 511.616 490.048 510.848L393.216 472.064C352.48 498.208 305.216 512 256 512C114.848 512 0 397.152 0 256C0 114.848 114.848 0 256 0ZM256 480C301.632 480 345.312 466.496 382.272 440.928C384.96 439.04 388.16 438.08 391.36 438.08C393.376 438.08 395.392 438.464 397.312 439.232L467.264 467.264L439.232 397.312C437.248 392.32 437.888 386.656 440.928 382.272C466.496 345.312 480 301.632 480 256C480 132.48 379.52 32 256 32C132.48 32 32 132.48 32 256C32 379.52 132.48 480 256 480Z" fill="white"/>
</svg>
