<svg width="512" height="512" viewBox="0 0 512 512" fill="none" xmlns="http://www.w3.org/2000/svg">
<g clip-path="url(#clip0_241_14)">
<path d="M302.907 256.419L502.27 57.0503C515.244 44.0822 515.244 23.1146 502.27 10.1465C489.302 -2.82162 468.334 -2.82162 455.366 10.1465L255.997 209.515L56.6345 10.1465C43.6603 -2.82162 22.6987 -2.82162 9.73064 10.1465C-3.24355 23.1146 -3.24355 44.0822 9.73064 57.0503L209.093 256.419L9.73064 455.788C-3.24355 468.756 -3.24355 489.724 9.73064 502.692C16.1934 509.16 24.691 512.41 33.1826 512.41C41.6741 512.41 50.1656 509.16 56.6345 502.692L255.997 303.323L455.366 502.692C461.835 509.16 470.326 512.41 478.818 512.41C487.309 512.41 495.801 509.16 502.27 502.692C515.244 489.724 515.244 468.756 502.27 455.788L302.907 256.419Z" fill="#3D3D3D"/>
</g>
<defs>
<clipPath id="clip0_241_14">
<rect width="512" height="512" fill="white"/>
</clipPath>
</defs>
</svg>
